<svg width="421" height="538" viewBox="0 0 421 538" fill="none" xmlns="http://www.w3.org/2000/svg">
<path d="M338.33 105.67H408.33C415.33 105.67 419.998 101.002 419.998 94.002C419.998 90.502 418.83 87.002 415.33 84.67L346.498 4.17001C344.166 0.670014 338.33 -0.497986 334.83 1.83411C330.166 3.00211 326.666 7.67001 326.666 12.3341V94.0021C326.666 101.002 331.33 105.67 338.33 105.67L338.33 105.67Z" fill="#7510F7"/>
<path d="M280 420.67C331.332 420.67 373.332 378.67 373.332 327.338C373.332 276.006 331.332 234.006 280 234.006C228.668 234.006 186.668 276.006 186.668 327.338C186.668 378.67 228.668 420.67 280 420.67ZM234.5 308.67C232.168 305.17 233.332 300.502 234.5 297.002C236.832 293.502 240.332 291.17 245 291.17H263.668L271.836 283.002C276.504 278.334 283.504 278.334 288.168 283.002L296.336 291.17H315C318.5 291.17 323.168 293.502 325.5 297.002C327.832 300.502 327.832 305.17 325.5 308.67L316.168 327.334L325.5 346.002C327.832 349.502 326.668 354.17 325.5 357.67C323.168 360.002 318.5 362.334 315 362.334H296.332L288.164 370.502C285.832 372.834 283.5 374.002 280 374.002C276.5 374.002 274.168 372.834 271.832 370.502L263.668 362.334H245C241.5 362.334 236.832 360.002 234.5 356.502C232.168 353.002 232.168 348.334 234.5 344.834L243.832 326.166L234.5 308.67Z" fill="#7510F7"/>
<path d="M338.33 117.33C325.498 117.33 314.998 106.83 314.998 93.998V12.33C314.998 7.66199 316.166 4.16199 318.498 0.661987L11.668 0.665895C5.8321 0.665895 0 6.49789 0 12.3299V467.33C0 473.162 5.832 478.998 11.668 478.998H198.338V392.666C183.17 375.166 175.006 351.834 175.006 327.334C175.006 269.002 221.674 222.334 280.006 222.334C338.338 222.334 385.006 269.002 385.006 327.334C385.006 351.834 375.674 375.166 361.674 392.666L361.67 478.998H408.338C414.17 478.998 420.006 473.166 420.006 467.33L420.002 113.83C416.502 116.162 413.002 117.33 408.334 117.33L338.33 117.33ZM58.33 70.666H128.33C135.33 70.666 139.998 75.334 139.998 82.334C139.998 89.334 135.33 94.002 128.33 94.002H58.33C51.33 94.002 46.662 89.334 46.662 82.334C46.6659 75.3301 51.33 70.666 58.33 70.666V70.666ZM151.666 385.666H58.334C51.334 385.666 46.666 380.998 46.666 373.998C46.666 366.998 51.334 362.33 58.334 362.33H151.666C158.666 362.33 163.334 366.998 163.334 373.998C163.33 380.998 158.666 385.666 151.666 385.666ZM151.666 327.33H58.334C51.334 327.33 46.666 322.662 46.666 315.662C46.666 308.662 51.334 303.994 58.334 303.994H151.666C158.666 303.994 163.334 308.662 163.334 315.662C163.33 322.666 158.666 327.33 151.666 327.33ZM151.666 268.998H58.334C51.334 268.998 46.666 264.33 46.666 257.33C46.666 250.33 51.334 245.662 58.334 245.662H151.666C158.666 245.662 163.334 250.33 163.334 257.33C163.33 264.33 158.666 268.998 151.666 268.998ZM303.326 210.666H58.326C51.326 210.666 46.658 205.998 46.658 198.998C46.658 191.998 51.326 187.33 58.326 187.33H303.326C310.326 187.33 314.994 191.998 314.994 198.998C314.994 205.998 310.326 210.666 303.326 210.666ZM303.326 152.33H58.326C51.326 152.33 46.658 147.662 46.658 140.662C46.658 133.662 51.326 128.994 58.326 128.994H303.326C310.326 128.994 314.994 133.662 314.994 140.662C314.994 147.666 310.326 152.33 303.326 152.33Z" fill="#7510F7"/>
<path d="M210 405.5V525.67C210 529.17 212.332 532.67 215.832 535.002C219.332 537.334 222.832 537.334 226.332 536.17L280 514.002L333.668 536.17C334.836 536.17 337.168 537.338 338.336 537.338C340.668 537.338 343.004 536.17 344.168 535.006C347.668 532.674 350 529.174 350 525.674V405.504C331.332 421.836 306.832 432.336 280 432.336C253.168 432.336 228.668 421.836 210 405.504V405.5Z" fill="#7510F7"/>
</svg>
