<svg width="545" height="455" viewBox="0 0 545 455" fill="none" xmlns="http://www.w3.org/2000/svg">
<path fill-rule="evenodd" clip-rule="evenodd" d="M477.45 75.56C462.97 80.0327 449.169 84.3959 434.235 88.408C434.34 83.1932 434.083 75.763 434.235 72.236C395.645 67.7633 351.977 63.2633 312.115 59.189C306.072 58.5679 299.342 58.9312 294.369 57.6265C290.697 56.6539 287.654 52.7984 283.416 51.3531C272.623 47.7086 247.615 49.7476 247.404 60.2281C247.197 70.2871 266.49 72.8881 278.72 70.6621C283.599 69.7832 287.415 66.5019 291.243 65.9746C295.708 65.3535 302.47 66.9707 308.47 67.5371C346.4 71.166 387.681 76.1816 425.36 79.5331V91.5531C379.825 104.491 333.93 118.752 287.59 132.776C281.223 134.698 272.801 138.354 267.762 138.514C261.34 138.721 249.926 133.143 242.188 130.678C184.083 112.276 125.578 93.1825 67.888 74.8505V53.4485C133.665 35.5575 201.318 18.8895 266.188 1.26051C273.055 -0.602792 286.688 4.6707 295.415 6.9988C354.524 22.8308 418.445 40.0338 477.535 55.5298L477.45 75.56Z" fill="#7510F7"/>
<path fill-rule="evenodd" clip-rule="evenodd" d="M433.18 95.63H434.227V132.673C443.192 135.618 448.938 150.228 441.008 158.235C455.395 162.626 448.133 188.673 449.879 205.712C438.332 210.618 420.602 210.345 408.645 205.712C410.376 188.821 403.212 163.064 417.52 158.755C410.364 150.513 414.782 134.396 425.348 133.185V98.224C427.645 97.0404 430.817 96.7396 433.18 95.6302L433.18 95.63Z" fill="#7510F7"/>
<path fill-rule="evenodd" clip-rule="evenodd" d="M386.75 119.2C346.094 130.384 306.719 142.848 266.71 154.68C225.718 141.235 184.401 128.102 143.03 115.02C142.425 115.106 142.464 115.848 142.514 116.583C142.491 151.544 142.553 184.907 142.514 218.843C186.991 258.663 302.944 267.296 363.784 235.027C370.499 231.464 386.061 223.289 386.757 217.8V119.198L386.75 119.2Z" fill="#7510F7"/>
<path fill-rule="evenodd" clip-rule="evenodd" d="M272.45 454.72C187.22 414.72 100.98 375.708 15.17 336.26C-3.146 318.338 -4.373 269.307 10.9981 247.014C49.1191 229.295 87.2791 211.627 125.808 194.323C126.285 204.522 123.785 216.436 125.808 226.143C127.191 232.756 146.578 241.979 152.945 245.463C181.957 261.283 222.675 272.08 264.625 272.08C327.328 272.08 374.095 256.185 403.435 226.674V219.373C422.681 227.096 451.982 223.158 467.103 214.674V177.108C492.326 190.678 517.037 204.756 542.248 218.323C449.85 263.878 356.678 308.647 264.108 354.003C184.424 320.796 105.398 286.909 26.1481 253.283C11.4411 267.658 11.5501 308.068 24.0583 324.779C100.105 359.349 266.508 436.949 269.328 436.979C272.543 437.002 281.738 431.17 286.555 428.635C368.621 385.295 452.815 342.178 534.955 299.215C536.959 298.61 535.604 294.653 536.01 292.422C538.799 294.684 542.483 296.039 544.869 298.696C545.28 302.754 544.073 305.207 544.35 309.134L272.45 454.72Z" fill="#7510F7"/>
<path fill-rule="evenodd" clip-rule="evenodd" d="M264.43 377.95L29.81 274.11L29.2123 269.755L263.822 373.595L264.43 377.95Z" fill="#7510F7"/>
<path fill-rule="evenodd" clip-rule="evenodd" d="M266.32 400.04L31.71 296.2L31.1124 291.848L265.722 395.678L266.32 400.04Z" fill="#7510F7"/>
<path fill-rule="evenodd" clip-rule="evenodd" d="M267.59 420.7L32.98 316.87L32.3823 312.515L266.992 416.345L267.59 420.7Z" fill="#7510F7"/>
</svg>
