<svg width="508" height="464" viewBox="0 0 508 464" fill="#7510F7" xmlns="http://www.w3.org/2000/svg">
<path d="M254.12 0.40205C250.401 0.40205 247.089 2.76145 245.866 6.28095L229.718 52.801L180.585 53.8088H180.581C176.851 53.8713 173.569 56.3009 172.417 59.8595C171.265 63.4142 172.491 67.3127 175.472 69.5627L214.64 99.3167L200.421 146.434H200.425C199.335 150.008 200.628 153.879 203.643 156.074C206.659 158.273 210.729 158.313 213.788 156.176L254.12 128.028L294.436 156.176C297.491 158.328 301.577 158.293 304.596 156.094C307.62 153.895 308.913 150.012 307.815 146.434L293.581 99.3166L332.769 69.5626C335.754 67.3126 336.98 63.4103 335.82 59.8517C334.664 56.2931 331.375 53.8634 327.64 53.8087L278.523 52.8009L262.355 6.28088H262.359C261.137 2.76528 257.836 0.409778 254.121 0.401978L254.12 0.40205ZM254.12 35.8281L263.999 64.3161C265.202 67.777 268.425 70.1246 272.081 70.1949L302.143 70.7926L278.166 89.0266C275.26 91.2414 274.033 95.0305 275.088 98.5305L283.803 127.394L259.108 110.167H259.111C256.108 108.069 252.115 108.069 249.111 110.167L224.416 127.394L233.131 98.5305H233.135C234.186 95.0305 232.959 91.2414 230.057 89.0266L206.08 70.7926L236.142 70.1949C239.798 70.1246 243.021 67.777 244.224 64.3161L254.12 35.8281ZM71.94 124.437C68.2369 124.437 64.94 126.8 63.7173 130.335L50.1473 169.862L8.75627 170.698C5.06097 170.784 1.82267 173.222 0.678166 176.776C-0.462434 180.331 0.740665 184.226 3.68206 186.491L36.6661 211.768L24.6701 251.791H24.6662C23.5842 255.377 24.8654 259.264 27.8654 261.471C30.8654 263.678 34.9162 263.725 37.9634 261.584L71.9404 237.674L105.913 261.584C108.96 263.737 113.023 263.701 116.03 261.491C119.034 259.28 120.319 255.381 119.226 251.791L107.23 211.768L140.214 186.491C143.155 184.222 144.358 180.323 143.21 176.769C142.065 173.214 138.819 170.78 135.12 170.698L93.745 169.862L80.159 130.335C78.9363 126.8 75.6395 124.437 71.9402 124.437L71.94 124.437ZM436.04 124.503C432.341 124.5 429.048 126.859 427.821 130.382L414.235 169.909L372.86 170.745V170.749C369.149 170.82 365.891 173.257 364.743 176.82C363.595 180.386 364.809 184.292 367.766 186.558L400.75 211.835L388.754 251.843L388.75 251.839C387.661 255.433 388.942 259.327 391.95 261.538C394.954 263.749 399.02 263.788 402.063 261.632L436.036 237.722L470.013 261.632C473.06 263.772 477.114 263.73 480.111 261.519C483.111 259.312 484.396 255.425 483.31 251.839L471.314 211.831L504.298 186.554V186.558C507.251 184.296 508.466 180.39 507.321 176.827C506.177 173.265 502.927 170.827 499.22 170.749L457.829 169.913L444.259 130.386V130.382C443.032 126.859 439.735 124.5 436.04 124.503L436.04 124.503ZM71.94 160.034L79.3072 181.432L79.3033 181.429C80.4986 184.909 83.7095 187.268 87.3541 187.343L109.709 187.784L91.8851 201.456L91.8811 201.46C88.9827 203.679 87.7562 207.491 88.807 211.011L95.3031 232.699L76.9121 219.746C73.9238 217.652 69.9668 217.652 66.9824 219.746L48.5953 232.668L55.072 211.016L55.0681 211.012C56.1228 207.492 54.8923 203.68 51.9938 201.461L34.1698 187.789L56.5408 187.348V187.344C60.1814 187.27 63.3964 184.91 64.5878 181.43L71.94 160.034ZM436.04 160.101L443.388 181.48C444.583 184.96 447.794 187.32 451.438 187.394L473.809 187.835L455.985 201.507C453.083 203.73 451.857 207.539 452.907 211.062L459.384 232.75L440.997 219.797V219.793C438.009 217.699 434.052 217.699 431.067 219.793L412.68 232.731L419.176 211.059L419.172 211.063C420.223 207.54 418.997 203.731 416.094 201.508L398.27 187.836L420.622 187.395H420.626C424.267 187.321 427.482 184.961 428.673 181.481L436.04 160.101ZM253.09 192.624C216.485 192.624 186.629 222.413 186.629 258.968C186.629 281.8 198.27 301.988 215.938 313.929C169.454 329.409 135.993 373.144 135.993 424.769V454.812H135.989C135.981 457.144 136.903 459.382 138.552 461.031C140.2 462.683 142.442 463.605 144.774 463.593H361.474C366.306 463.574 370.209 459.644 370.189 454.812V424.769C370.189 373.136 336.724 329.402 290.244 313.929C307.935 301.988 319.623 281.804 319.623 258.968C319.623 222.417 289.697 192.624 253.092 192.624L253.09 192.624ZM253.09 210.14C280.258 210.14 302.121 231.894 302.121 258.964C302.121 286.038 280.258 307.859 253.09 307.859C225.922 307.859 204.129 286.039 204.129 258.964C204.129 231.89 225.922 210.14 253.09 210.14ZM253.09 325.43C308.434 325.43 352.688 369.59 352.688 424.774V446.086L153.488 446.082V424.77C153.488 369.59 197.746 325.426 253.086 325.426L253.09 325.43Z"/>
</svg>
