<svg width="36" height="64" viewBox="0 0 36 64" fill="none" xmlns="http://www.w3.org/2000/svg">
<path d="M32.8679 0.000137069H29.1171C29.3231 0.563183 29.4008 1.17764 29.3102 1.79206L28.9493 4.50546C28.5625 7.43692 26.0362 9.65111 23.059 9.65111H12.941C9.96368 9.65111 7.42457 7.43651 7.03775 4.50546L6.67685 1.77917C6.61211 1.15185 6.68979 0.550236 6.88292 0H3.13212C1.40476 0 0 1.38214 0 3.09754V60.9025C0 62.605 1.40476 64 3.13212 64H32.8679C34.5952 64 36 62.605 36 60.9025V3.09754C35.9871 1.38214 34.5952 0 32.8679 0V0.000137069ZM8.71275 41.0378V35.0982C8.71275 34.0997 7.88792 33.2805 6.88237 33.2805C6.17353 33.2805 5.55477 32.7046 5.55477 32.0007C5.55477 31.2968 6.08343 30.7209 6.79227 30.7209C7.8879 30.7209 8.71269 29.9017 8.71269 28.9031V22.9636C8.71269 21.1716 10.1822 19.7123 11.9866 19.7123H13.2112C13.92 19.7123 14.5 20.2753 14.5 20.9921C14.5 21.6961 13.92 22.272 13.2112 22.272H11.9866C11.5998 22.272 11.2907 22.5789 11.2907 22.963V28.9026C11.2907 30.1058 10.788 31.2068 9.98903 32.0002C10.8009 32.7936 11.2907 33.8944 11.2907 35.0977V41.0373C11.2907 41.4214 11.5998 41.7284 11.9866 41.7284H13.2112C13.92 41.7284 14.5 42.3043 14.5 43.0082C14.5 43.7121 13.92 44.288 13.2112 44.288H11.9866C10.1822 44.2891 8.71269 42.8298 8.71269 41.0378L8.71275 41.0378ZM24.8373 59.8663H11.1493C10.4275 59.8663 9.8605 59.2904 9.8605 58.5865C9.8605 57.8697 10.4275 57.3067 11.1493 57.3067H24.8249C25.5338 57.3067 26.1137 57.8697 26.1137 58.5865C26.1266 59.2904 25.5462 59.8663 24.8373 59.8663H24.8373ZM29.194 33.2796C28.0984 33.2796 27.2866 34.0987 27.2866 35.0973V41.0368C27.2866 42.8288 25.817 44.2881 24.0126 44.2881H22.788C22.0663 44.2881 21.4993 43.7122 21.4993 43.0083C21.4993 42.3044 22.0663 41.7285 22.788 41.7285H24.0126C24.3865 41.7285 24.7085 41.4215 24.7085 41.0374V35.0978C24.7085 33.8817 25.1983 32.7808 26.0102 31.9874C25.1983 31.194 24.7085 30.1059 24.7085 28.9027V22.9631C24.7085 22.579 24.3865 22.2721 24.0126 22.2721H22.788C22.0663 22.2721 21.4993 21.6962 21.4993 20.9922C21.4993 20.2754 22.0663 19.7124 22.788 19.7124H24.0126C25.817 19.7124 27.2866 21.1718 27.2866 22.9637V28.9033C27.2866 29.9018 28.0984 30.721 29.1169 30.721C29.8258 30.721 30.4445 31.2969 30.4445 32.0008C30.4445 32.7037 29.9159 33.2796 29.1941 33.2796H29.194Z" fill="white"/>
<path d="M12.9277 7.09146H23.0458C24.7343 7.09146 26.1649 5.83681 26.3839 4.17289L26.7448 1.4466C26.7966 1.07535 26.6806 0.704087 26.4357 0.435161C26.2038 0.15337 25.8558 0.000152588 25.482 0.000152588H10.505C10.1312 0.000152588 9.77026 0.153905 9.52534 0.435161C9.28043 0.704087 9.17739 1.07535 9.21622 1.4466L9.57712 4.17289C9.79614 5.83686 11.2397 7.09146 12.9283 7.09146H12.9277Z" fill="white"/>
</svg>
