<svg width="471" height="532" viewBox="0 0 471 532" fill="none" xmlns="http://www.w3.org/2000/svg">
<path d="M47.4 327.6V204.4C43.4781 204.959 39.5602 205.521 35.638 205.521C31.7158 205.521 27.2396 204.963 23.876 204.4L23.8799 327.6C27.8018 327.041 31.7197 326.479 35.6419 326.479C39.5599 326.479 43.4817 327.038 47.3999 327.6H47.4Z" fill="#7510F7"/>
<path d="M194.68 72.801C189.078 66.6408 185.161 59.922 182.918 52.082L75.958 114.238C81.5596 120.398 85.4775 127.117 87.72 134.957L194.68 72.801Z" fill="#7510F7"/>
<path d="M422.6 204.4V327.6C426.522 327.041 430.44 326.479 434.362 326.479C438.284 326.479 442.761 327.038 446.124 327.6L446.12 204.4C442.198 204.959 438.28 205.521 434.358 205.521C430.44 205.521 426.518 204.963 422.6 204.4H422.6Z" fill="#7510F7"/>
<path d="M275.32 459.2C280.922 465.36 284.84 472.079 287.64 479.919L394.6 417.759C388.998 412.157 385.081 404.88 382.28 397.04L275.32 459.2Z" fill="#7510F7"/>
<path d="M275.32 72.801L382.28 134.403C384.518 126.563 388.999 119.844 394.6 113.684L287.08 52.079C284.842 59.9228 280.361 66.641 275.322 72.802L275.32 72.801Z" fill="#7510F7"/>
<path d="M75.96 418.32L182.92 480.48C185.158 472.64 189.639 465.921 194.682 459.761L87.722 397.601C85.4837 405.441 81.0032 412.16 75.964 418.32H75.96Z" fill="#7510F7"/>
<path d="M235 71.121C254.602 71.121 270.84 54.883 270.84 35.281C270.84 15.679 254.602 0 235 0C215.398 0 199.719 16.238 199.719 35.84C199.719 55.442 215.399 71.121 235 71.121Z" fill="#7510F7"/>
<path d="M434.36 186.48C453.962 186.48 470.2 170.8 470.2 150.64C470.2 131.038 454.52 115.359 434.36 115.359C414.758 115.359 399.079 131.039 399.079 150.64C399.079 170.8 414.763 186.48 434.36 186.48Z" fill="#7510F7"/>
<path d="M434.36 345.52C414.758 345.52 399.079 361.2 399.079 380.801C399.079 400.403 414.759 416.641 434.36 416.641C453.961 416.641 470.2 400.961 470.2 380.801C470.2 361.762 453.962 345.52 434.36 345.52V345.52Z" fill="#7510F7"/>
<path d="M35.64 115.36C16.038 115.36 0.359009 131.04 0.359009 150.641C0.359009 170.242 16.039 186.481 35.64 186.481C55.241 186.481 71.48 170.801 71.48 150.641C70.9214 131.039 55.238 115.36 35.64 115.36Z" fill="#7510F7"/>
<path d="M35.64 345.52C16.038 345.52 0.359009 361.2 0.359009 380.801C0.359009 400.403 16.039 416.641 35.64 416.641C55.241 416.641 71.48 400.961 71.48 380.801C70.9214 361.762 55.238 345.52 35.64 345.52V345.52Z" fill="#7510F7"/>
<path d="M235 460.88C215.398 460.88 199.719 476.56 199.719 496.72C199.719 516.322 215.399 532.001 235 532.001C254.601 532.001 270.84 516.321 270.84 496.72C270.84 476.56 254.602 460.88 235 460.88Z" fill="#7510F7"/>
<path d="M169.48 287.84C163.32 287.84 157.718 286.16 152.679 282.801L130.839 268.801V346.082C130.839 352.801 136.441 357.844 143.159 357.844H327.959C334.678 357.844 339.721 352.805 339.721 346.082L339.717 268.801L317.319 282.801C312.28 286.16 306.678 287.84 300.518 287.84H272.518V290.078C272.518 304.078 261.319 315.84 246.756 315.84H223.236C209.236 315.84 197.474 304.641 197.474 290.078V287.84H169.48Z" fill="#7510F7"/>
<path d="M270.28 150.64H199.718C192.999 150.64 187.398 156.242 187.398 162.96V193.761H128.601C121.882 193.761 116.839 198.8 116.839 205.523V230.164C116.839 234.086 119.077 238.004 122.441 240.242L163.32 266.004C164.999 267.125 167.241 267.684 169.48 267.684H197.48V266.004C197.48 252.004 208.679 240.242 223.242 240.242H246.762C260.762 240.242 272.524 251.441 272.524 266.004V267.684H300.524C302.762 267.684 305.004 267.125 306.684 266.004L347.563 240.242C350.922 238.004 353.165 234.082 353.165 230.164V205.523C353.165 198.804 348.125 193.761 341.403 193.761H282.602V162.96C282.602 156.237 277 150.64 270.282 150.64H270.28ZM257.96 193.761H212.038V175.281H257.96V193.761Z" fill="#7510F7"/>
<path d="M246.76 295.68C250.119 295.68 252.362 292.879 252.362 290.078V266.558C252.362 263.199 249.561 260.957 246.76 260.957H223.24C219.881 260.957 217.638 263.758 217.638 266.558V290.078C217.638 293.438 220.439 295.68 223.24 295.68H246.76Z" fill="#7510F7"/>
</svg>
