<svg width="552" height="526" viewBox="0 0 552 526" fill="#ffd700" xmlns="http://www.w3.org/2000/svg">
<path d="M551.373 199.405C550.084 195.472 546.408 192.776 542.252 192.776L345.752 192.78L285.033 5.9004C282.459 -1.9668 269.369 -1.9668 266.791 5.9004L206.084 192.78H9.59401C5.43781 192.78 1.762 195.472 0.472904 199.409C-0.816196 203.366 0.590098 207.698 3.96121 210.132L162.921 325.622L102.202 512.482C100.913 516.439 102.319 520.771 105.679 523.205C109.05 525.686 113.593 525.686 116.964 523.205L275.914 407.715L434.884 523.205C436.56 524.448 438.536 525.053 440.517 525.053C442.497 525.053 444.474 524.444 446.161 523.205C449.52 520.768 450.927 516.44 449.638 512.482L388.919 325.622L547.889 210.132C551.248 207.695 552.65 203.363 551.365 199.405L551.373 199.405Z"/>
</svg>
