<svg width="552" height="526" viewBox="0 0 552 526" stroke="#FFD700" stroke-width="40" xmlns="http://www.w3.org/2000/svg">
<path d="M542.329 195.751C545.291 195.751 547.935 197.61 548.972 200.368L549.064 200.652C550.016 203.584 548.976 206.785 546.497 208.583L546.496 208.584L387.526 324.074L386.057 325.142L386.618 326.869L447.337 513.729L447.338 513.731C448.291 516.659 447.25 519.857 444.77 521.656L444.759 521.664C443.513 522.578 442.058 523.028 440.594 523.028C439.124 523.028 437.675 522.58 436.449 521.672L436.44 521.664L436.43 521.657L277.46 406.167L275.991 405.1L274.521 406.167L115.571 521.657L115.565 521.662L115.559 521.666C113.069 523.498 109.727 523.498 107.237 521.666L107.23 521.661L107.222 521.655C104.744 519.86 103.702 516.66 104.656 513.731L104.657 513.729L165.376 326.869L165.937 325.142L164.468 324.074L5.50757 208.584L5.50153 208.58C3.0149 206.785 1.97349 203.587 2.92634 200.66C3.88257 197.742 6.60576 195.755 9.67091 195.755H206.161H207.977L208.539 194.027L269.244 7.1535C270.095 4.55677 272.788 2.97461 275.99 2.97461C279.19 2.97461 281.881 4.55466 282.732 7.14753C282.733 7.14917 282.733 7.15082 282.734 7.15247L343.451 194.028L344.013 195.755L345.829 195.755L542.329 195.751Z"/>
</svg>
